<?xml version="1.0" encoding="UTF-8" standalone="no"?>
<svg
   version="1.1"
   width="1000"
   height="270"
   viewBox="0 0 1000 270"
   id="svg544"
   sodipodi:docname="logo.svg"
   inkscape:version="1.2.2 (1:1.2.2+202212051552+b0a8486541)"
   xmlns:inkscape="http://www.inkscape.org/namespaces/inkscape"
   xmlns:sodipodi="http://sodipodi.sourceforge.net/DTD/sodipodi-0.dtd"
   xmlns="http://www.w3.org/2000/svg"
   xmlns:svg="http://www.w3.org/2000/svg">
  <defs
     id="defs548" />
  <sodipodi:namedview
     id="namedview546"
     pagecolor="#ffffff"
     bordercolor="#999999"
     borderopacity="1"
     inkscape:showpageshadow="0"
     inkscape:pageopacity="0"
     inkscape:pagecheckerboard="0"
     inkscape:deskcolor="#d1d1d1"
     showgrid="false"
     inkscape:zoom="0.655"
     inkscape:cx="691.60305"
     inkscape:cy="146.56489"
     inkscape:window-width="1920"
     inkscape:window-height="1011"
     inkscape:window-x="0"
     inkscape:window-y="0"
     inkscape:window-maximized="1"
     inkscape:current-layer="svg544" />
  <g
     transform="matrix(1,0,0,1,-0.6060606060606801,-0.3509674552074955)"
     id="g542">
    <svg
       viewBox="0 0 396 107"
       data-background-color="#ffffff"
       preserveAspectRatio="xMidYMid meet"
       height="270"
       width="1000"
       version="1.1"
       id="svg540">
      <g
         id="tight-bounds"
         transform="matrix(1,0,0,1,0.24000000000003752,0.13908710261927126)">
        <svg
           viewBox="0 0 395.5199999999999 106.72182579476149"
           height="106.72182579476149"
           width="395.5199999999999"
           version="1.1"
           id="svg535">
          <g
             id="g531">
            <svg
               viewBox="0 0 597.4610772844753 161.21090465489561"
               height="106.72182579476149"
               width="395.5199999999999"
               version="1.1"
               id="svg529">
              <g
                 id="g489">
                <rect
                   width="6.660391771025874"
                   height="161.21090465489561"
                   x="177.84510496102573"
                   y="0"
                   fill="#61777f"
                   opacity="1"
                   stroke-width="0"
                   stroke="transparent"
                   fill-opacity="1"
                   class="rect-o-0"
                   data-fill-palette-color="primary"
                   rx="1%"
                   id="o-0"
                   data-palette-color="#61777f" />
              </g>
              <g
                 transform="matrix(1,0,0,1,201.94107728447534,0.40102215088280957)"
                 id="g512">
                <svg
                   viewBox="0 0 395.52 160.40886035313"
                   height="160.40886035313"
                   width="395.52"
                   version="1.1"
                   id="svg510">
                  <g
                     id="textblocktransform">
                    <svg
                       viewBox="0 0 395.52 160.40886035313"
                       height="160.40886035313"
                       width="395.52"
                       id="textblock"
                       version="1.1">
                      <g
                         id="g506">
                        <svg
                           viewBox="0 0 395.52 160.40886035313"
                           height="160.40886035313"
                           width="395.52"
                           version="1.1"
                           id="svg504">
                          <g
                             id="g502"
                             transform="matrix(1,0,0,1,0,0)">
                            <svg
                               width="395.52"
                               viewBox="95.29999542236328 -34.249996185302734 186.90005493164062 73.05000305175781"
                               height="160.40886035313"
                               data-palette-color="#61777f"
                               version="1.1"
                               id="svg500">
                              <svg
                                 version="1.1"
                                 id="svg491" />
                              <svg
                                 version="1.1"
                                 id="svg493" />
                              <g
                                 class="undefined-text-0"
                                 data-fill-palette-color="primary"
                                 id="text-0">
                                <path
                                   d="M145.52 0.3l0.4-3.25c1.533-0.133 2.633-0.333 3.3-0.6 0.667-0.267 1.117-0.733 1.35-1.4 0.233-0.667 0.35-1.767 0.35-3.3v0-20.05c-1.933 0.067-3.29 0.233-4.07 0.5-0.787 0.267-1.33 0.807-1.63 1.62-0.3 0.82-0.567 2.297-0.8 4.43v0l-4.1 0.3c0.233-2.767 0.433-6.317 0.6-10.65v0l0.55-0.55 4.95 0.55h15.6l5.05-0.55 0.55 0.55c0.067 4 0.233 7.45 0.5 10.35v0l-4.1 0.3c-0.267-2.267-0.54-3.817-0.82-4.65-0.287-0.833-0.787-1.393-1.5-1.68-0.72-0.28-1.997-0.453-3.83-0.52v0c-0.167 2.467-0.307 5.817-0.42 10.05-0.12 4.233-0.18 8.083-0.18 11.55v0c0 1.233 0.217 2.117 0.65 2.65 0.433 0.533 1.133 0.8 2.1 0.8v0c0.833 0 1.717-0.05 2.65-0.15v0l0.2 0.25-0.45 3.35c-3.533-0.133-6.4-0.2-8.6-0.2v0c-1.733 0-4.5 0.1-8.3 0.3zM206.12-18.15l1.15 2.2v0.3l-4.05 4.1-0.95 0.3-3.55-0.35c-0.867 2.3-2.173 4.383-3.92 6.25-1.753 1.867-3.753 3.333-6 4.4-2.253 1.067-4.563 1.6-6.93 1.6v0c-2.433 0-4.567-0.51-6.4-1.53-1.833-1.013-3.25-2.437-4.25-4.27-1-1.833-1.5-3.95-1.5-6.35v0c0-2.467 0.567-4.777 1.7-6.93 1.133-2.147 2.6-3.853 4.4-5.12 1.8-1.267 3.65-1.9 5.55-1.9v0c1.4 0 2.517 0.34 3.35 1.02 0.833 0.687 1.25 1.547 1.25 2.58v0c0 0.367-0.057 0.707-0.17 1.02-0.12 0.32-0.213 0.53-0.28 0.63v0l0.25 0.2c2.7-2.233 4.81-4.433 6.33-6.6 1.513-2.167 2.553-4.533 3.12-7.1v0l0.6-0.55h1.55c0.1 0.2 0.283 0.65 0.55 1.35 0.267 0.7 0.533 1.45 0.8 2.25 0.267 0.8 0.4 1.4 0.4 1.8v0c0 0.5-0.6 1.483-1.8 2.95v0c-2.067 2.467-4.883 5.167-8.45 8.1-3.567 2.933-8.017 5.867-13.35 8.8v0c0.6 1.567 1.617 2.773 3.05 3.62 1.433 0.853 3.2 1.28 5.3 1.28v0c2.5 0 4.66-0.7 6.48-2.1 1.813-1.4 3.087-3.35 3.82-5.85v0l-2.25-0.25c-0.333 0-0.74 0.167-1.22 0.5-0.487 0.333-0.92 0.673-1.3 1.02-0.387 0.353-0.63 0.58-0.73 0.68v0h-0.3l-1.3-2.25v-0.25l4.25-4.1 0.8-0.25c0.533 0 1.433 0.083 2.7 0.25 1.267 0.167 2.1 0.267 2.5 0.3v0c2.667 0.333 4.25 0.5 4.75 0.5v0c0.333 0 0.777-0.167 1.33-0.5 0.547-0.333 1.047-0.683 1.5-1.05 0.447-0.367 0.737-0.6 0.87-0.7v0zM174.52-13.55c0 0.567 0.033 1.15 0.1 1.75v0c1.8-1.033 3.177-1.91 4.13-2.63 0.947-0.713 1.603-1.37 1.97-1.97 0.367-0.6 0.55-1.267 0.55-2v0c0-0.633-0.157-1.11-0.47-1.43-0.32-0.313-0.78-0.47-1.38-0.47v0c-1.367 0-2.523 0.633-3.47 1.9-0.953 1.267-1.43 2.883-1.43 4.85zM220.12 0.6c-3.067 0-5.717-0.633-7.95-1.9-2.233-1.267-3.95-3.083-5.15-5.45-1.2-2.367-1.8-5.167-1.8-8.4v0c0-3.6 0.717-6.717 2.15-9.35 1.433-2.633 3.483-4.66 6.15-6.08 2.667-1.413 5.817-2.12 9.45-2.12v0c1.3 0 2.683 0.09 4.15 0.27 1.467 0.187 2.717 0.38 3.75 0.58 1.033 0.2 1.7 0.333 2 0.4v0l0.35 0.65c-0.067 0.2-0.183 0.707-0.35 1.52-0.167 0.82-0.34 1.903-0.52 3.25-0.187 1.353-0.33 2.797-0.43 4.33v0l-4.8 0.35c0.033-0.133 0.067-0.45 0.1-0.95 0.033-0.5 0.05-1.1 0.05-1.8v0c0-1.4-0.423-2.393-1.27-2.98-0.853-0.58-2.263-0.87-4.23-0.87v0c-3.033 0-5.3 0.907-6.8 2.72-1.5 1.82-2.25 4.613-2.25 8.38v0c0 4.1 0.76 7.273 2.28 9.52 1.513 2.253 3.62 3.38 6.32 3.38v0c0.9 0 1.717-0.1 2.45-0.3 0.733-0.2 1.31-0.41 1.73-0.63 0.413-0.213 0.67-0.353 0.77-0.42v0-4.75c0-0.967-0.15-1.61-0.45-1.93-0.3-0.313-0.9-0.47-1.8-0.47v0h-2.6l-0.25-0.4 0.5-3.55c0.8 0 1.483 0.017 2.05 0.05v0c1.867 0.067 3.5 0.1 4.9 0.1v0c1.033 0 2.05-0.033 3.05-0.1 1-0.067 1.65-0.117 1.95-0.15v0l0.35 1.9c-0.567 0.367-0.99 0.823-1.27 1.37-0.287 0.553-0.48 1.337-0.58 2.35-0.1 1.02-0.15 2.513-0.15 4.48v0c0 2 0.117 3.45 0.35 4.35v0l-0.45 0.6c0 0.033-0.557 0.233-1.67 0.6-1.12 0.367-2.553 0.7-4.3 1-1.753 0.3-3.68 0.45-5.78 0.45z"
                                   fill="#61777f"
                                   fill-rule="nonzero"
                                   stroke="none"
                                   stroke-width="1"
                                   stroke-linecap="butt"
                                   stroke-linejoin="miter"
                                   stroke-miterlimit="10"
                                   stroke-dasharray=""
                                   stroke-dashoffset="0"
                                   font-family="none"
                                   font-weight="none"
                                   font-size="none"
                                   text-anchor="none"
                                   style="mix-blend-mode: normal"
                                   data-fill-palette-color="primary"
                                   opacity="1"
                                   id="path495" />
                                <path
                                   d="M104.45 38.5c-1.533 0-2.95-0.14-4.25-0.42-1.3-0.287-2.373-0.597-3.22-0.93-0.853-0.333-1.28-0.517-1.28-0.55v0l-0.4-0.7c0.033-0.233 0.11-0.743 0.23-1.53 0.113-0.78 0.237-1.83 0.37-3.15 0.133-1.313 0.2-2.587 0.2-3.82v0l4.1-0.3c0 1.867 0.167 3.3 0.5 4.3 0.333 1 0.893 1.707 1.68 2.12 0.78 0.42 1.903 0.63 3.37 0.63v0c1.6 0 2.883-0.35 3.85-1.05 0.967-0.7 1.45-1.667 1.45-2.9v0c0-1.1-0.51-2.033-1.53-2.8-1.013-0.767-2.587-1.667-4.72-2.7v0c-0.133-0.067-0.517-0.25-1.15-0.55v0c-2.5-1.2-4.45-2.467-5.85-3.8-1.4-1.333-2.1-3.067-2.1-5.2v0c0-1.9 0.567-3.61 1.7-5.13 1.133-1.513 2.71-2.697 4.73-3.55 2.013-0.847 4.303-1.27 6.87-1.27v0c1.467 0 2.827 0.1 4.08 0.3 1.247 0.2 2.247 0.407 3 0.62 0.747 0.22 1.22 0.363 1.42 0.43v0l0.35 0.65c-0.033 0.2-0.133 0.707-0.3 1.52-0.167 0.82-0.333 1.863-0.5 3.13-0.167 1.267-0.3 2.567-0.4 3.9v0l-3.7 0.3-0.45-0.3c0-0.1 0.017-0.31 0.05-0.63 0.033-0.313 0.05-0.703 0.05-1.17v0c0-1.5-0.373-2.567-1.12-3.2-0.753-0.633-2.013-0.95-3.78-0.95v0c-1.433 0-2.607 0.34-3.52 1.02-0.92 0.687-1.38 1.563-1.38 2.63v0c0 0.8 0.293 1.523 0.88 2.17 0.58 0.653 1.28 1.213 2.1 1.68 0.813 0.467 2.003 1.083 3.57 1.85v0c1.867 0.9 3.41 1.717 4.63 2.45 1.213 0.733 2.237 1.667 3.07 2.8 0.833 1.133 1.25 2.483 1.25 4.05v0c0 2-0.573 3.76-1.72 5.28-1.153 1.513-2.77 2.687-4.85 3.52-2.087 0.833-4.513 1.25-7.28 1.25zM122.2 38.3l0.3-2.9c1.133-0.133 1.9-0.443 2.3-0.93 0.4-0.48 0.6-1.303 0.6-2.47v0l0.05-14.25c0-0.833-0.083-1.393-0.25-1.68-0.167-0.28-0.517-0.42-1.05-0.42v0l-1.2 0.05-0.3-0.4 0.35-2.55c0.533 0 1.56 0.017 3.08 0.05 1.513 0.033 3.137 0.05 4.87 0.05v0c5.9 0 10.1-0.15 12.6-0.45v0l0.35 0.45c-0.1 0.433-0.257 1.373-0.47 2.82-0.22 1.453-0.38 2.947-0.48 4.48v0l-4.15 0.25c0-0.1 0.017-0.31 0.05-0.63 0.033-0.313 0.05-0.62 0.05-0.92v0c0-0.733-0.117-1.25-0.35-1.55-0.233-0.3-0.683-0.51-1.35-0.63-0.667-0.113-1.767-0.17-3.3-0.17v0c-0.9 0-1.457 0.067-1.67 0.2-0.22 0.133-0.347 0.467-0.38 1v0l-0.25 5.65h3.7c0.6 0 1.45-0.043 2.55-0.13 1.1-0.08 1.833-0.137 2.2-0.17v0l0.4 0.45-0.6 3.6c-0.367 0-1.057-0.017-2.07-0.05-1.02-0.033-2.097-0.05-3.23-0.05v0c-0.9 0-1.933 0.083-3.1 0.25v0c-0.067 1.6-0.1 3.233-0.1 4.9v0c0 0.733 0.05 1.25 0.15 1.55 0.1 0.3 0.317 0.507 0.65 0.62 0.333 0.12 0.9 0.18 1.7 0.18v0c1.667 0 2.883-0.11 3.65-0.33 0.767-0.213 1.317-0.613 1.65-1.2 0.333-0.58 0.6-1.537 0.8-2.87v0l3.8-0.3 0.4 0.45c-0.1 0.4-0.273 1.333-0.52 2.8-0.253 1.467-0.463 3.017-0.63 4.65v0l-0.45 0.45c-0.833-0.033-2.64-0.083-5.42-0.15-2.787-0.067-5.297-0.1-7.53-0.1v0c-1.567 0-3.083 0.06-4.55 0.18-1.467 0.113-2.417 0.187-2.85 0.22zM161.4 38.45c-2.733-8.467-4.717-14.15-5.95-17.05v0h-0.4c-0.067 1.2-0.183 3.183-0.35 5.95-0.167 2.767-0.283 4.933-0.35 6.5v0c0 0.433 0.11 0.75 0.33 0.95 0.213 0.2 0.553 0.3 1.02 0.3v0h1.3l0.25 0.2-0.4 2.75c-0.4 0-1.133-0.023-2.2-0.07-1.067-0.053-2.05-0.08-2.95-0.08v0c-0.7 0-1.507 0.043-2.42 0.13-0.92 0.08-1.53 0.137-1.83 0.17v0l0.25-2.85c0.8-0.067 1.393-0.31 1.78-0.73 0.38-0.413 0.603-1.087 0.67-2.02v0c0.233-1.767 0.56-4.617 0.98-8.55 0.413-3.933 0.62-6.15 0.62-6.65v0c0-0.7-0.183-1.16-0.55-1.38-0.367-0.213-1.183-0.37-2.45-0.47v0l-0.25-0.3 0.4-2.6c0.433 0.033 1.193 0.073 2.28 0.12 1.08 0.053 2.12 0.08 3.12 0.08v0c1.033 0 2.027-0.017 2.98-0.05 0.947-0.033 1.587-0.067 1.92-0.1v0c0.933 3.3 1.877 6.423 2.83 9.37 0.947 2.953 1.57 4.847 1.87 5.68v0h0.4c0.3-0.833 0.95-2.717 1.95-5.65 1-2.933 2.017-6.017 3.05-9.25v0c0.433-0.033 0.843-0.043 1.23-0.03 0.38 0.02 0.72 0.03 1.02 0.03v0c0.367 0.033 0.967 0.05 1.8 0.05v0c0.667 0 1.167-0.017 1.5-0.05v0c0.9-0.033 1.743-0.077 2.53-0.13 0.78-0.047 1.303-0.087 1.57-0.12v0l0.2 0.15-0.3 2.7c-1.133 0.067-1.9 0.24-2.3 0.52-0.4 0.287-0.6 0.797-0.6 1.53v0c0 0.933 0.11 2.957 0.33 6.07 0.213 3.12 0.42 5.797 0.62 8.03v0c0.167 1.367 0.383 2.29 0.65 2.77 0.267 0.487 0.717 0.73 1.35 0.73v0l1.15-0.05 0.2 0.25-0.35 2.7c-0.3 0-0.857-0.017-1.67-0.05-0.82-0.033-1.697-0.05-2.63-0.05v0c-0.967 0.033-2.107 0.077-3.42 0.13-1.32 0.047-2.297 0.103-2.93 0.17v0l0.3-2.85c0.833-0.1 1.427-0.293 1.78-0.58 0.347-0.28 0.52-0.737 0.52-1.37v0c0-0.633-0.1-2.517-0.3-5.65-0.2-3.133-0.333-5.25-0.4-6.35v0h-0.4c-0.6 1.467-1.457 3.757-2.57 6.87-1.12 3.12-2.247 6.397-3.38 9.83v0zM183.3 38.2l0.3-2.75c1.2-0.233 1.983-0.56 2.35-0.98 0.367-0.413 0.55-1.17 0.55-2.27v0l0.05-14.55c0-0.8-0.1-1.333-0.3-1.6-0.2-0.267-0.6-0.4-1.2-0.4v0h-1.35l-0.2-0.4 0.25-2.45 5.95 0.05c0.733 0 1.817-0.033 3.25-0.1 1.433-0.067 2.383-0.117 2.85-0.15v0l-0.25 2.85c-1.033 0.133-1.707 0.333-2.02 0.6-0.32 0.267-0.513 0.767-0.58 1.5v0c-0.333 4.9-0.5 9.883-0.5 14.95v0c0 1.067 0.1 1.773 0.3 2.12 0.2 0.353 0.617 0.53 1.25 0.53v0c0.433 0 0.793-0.017 1.08-0.05 0.28-0.033 0.47-0.05 0.57-0.05v0l0.25 0.3-0.35 2.65c-0.467 0-1.34-0.017-2.62-0.05-1.287-0.033-2.513-0.05-3.68-0.05v0c-0.967 0-2.1 0.043-3.4 0.13-1.3 0.08-2.15 0.137-2.55 0.17zM219.6 27.75l-0.1-10.45c-0.033-0.633-0.15-1.067-0.35-1.3-0.2-0.233-0.533-0.35-1-0.35v0h-1.4l-0.15-0.35 0.25-2.6c0.4 0.033 1.15 0.067 2.25 0.1 1.1 0.033 2.217 0.05 3.35 0.05v0c1.1 0 2.133-0.027 3.1-0.08 0.967-0.047 1.617-0.087 1.95-0.12v0l-0.2 2.85c-0.9 0.133-1.54 0.383-1.92 0.75-0.387 0.367-0.597 0.933-0.63 1.7v0l-0.6 20.35-4.95 0.5c-2.533-3.733-4.907-7.143-7.12-10.23-2.22-3.08-3.63-5.037-4.23-5.87v0h-0.45v10.65c0 0.7 0.11 1.183 0.33 1.45 0.213 0.267 0.587 0.4 1.12 0.4v0c0.3 0 0.627-0.017 0.98-0.05 0.347-0.033 0.587-0.05 0.72-0.05v0l0.25 0.25-0.45 2.7c-0.4 0-1.15-0.023-2.25-0.07-1.1-0.053-2.183-0.08-3.25-0.08v0c-0.967 0-2.007 0.043-3.12 0.13-1.12 0.08-1.847 0.137-2.18 0.17v0l0.35-2.85c0.833-0.1 1.433-0.333 1.8-0.7 0.367-0.367 0.567-0.95 0.6-1.75v0l0.55-14.9c0-0.833-0.217-1.41-0.65-1.73-0.433-0.313-1.317-0.553-2.65-0.72v0l-0.35-0.4 0.3-2.5c0.3 0.033 0.983 0.073 2.05 0.12 1.067 0.053 2.05 0.08 2.95 0.08v0c0.967 0 1.85-0.017 2.65-0.05 0.8-0.033 1.333-0.067 1.6-0.1v0c2.067 3.233 4.16 6.34 6.28 9.32 2.113 2.987 3.487 4.897 4.12 5.73v0zM242.15 38.2l-0.25-0.3 0.2-2.6c0.967-0.1 1.65-0.193 2.05-0.28 0.4-0.08 0.677-0.203 0.83-0.37 0.147-0.167 0.22-0.417 0.22-0.75v0c0-0.367-0.067-0.75-0.2-1.15v0l-0.7-2.6c-0.7-0.033-1.917-0.05-3.65-0.05v0c-0.767 0-2.033 0.083-3.8 0.25v0l-0.9 2.6c-0.133 0.5-0.2 0.867-0.2 1.1v0c0 0.433 0.127 0.723 0.38 0.87 0.247 0.153 0.72 0.23 1.42 0.23v0h1.55l0.25 0.35-0.3 2.6c-0.4-0.033-1.24-0.073-2.52-0.12-1.287-0.053-2.48-0.08-3.58-0.08v0c-1.167 0-2.223 0.017-3.17 0.05-0.953 0.033-1.58 0.05-1.88 0.05v0l0.3-2.8c0.6-0.1 1.093-0.343 1.48-0.73 0.38-0.38 0.737-0.953 1.07-1.72v0l7.2-19.7 7.35-0.65 0.5 0.3c0.4 1.5 1.25 4.567 2.55 9.2 1.3 4.633 2.367 8.183 3.2 10.65v0c0.267 0.9 0.627 1.55 1.08 1.95 0.447 0.4 1.103 0.633 1.97 0.7v0l0.2 0.3-0.3 2.5c-0.367 0-1.057-0.017-2.07-0.05-1.02-0.033-2.063-0.05-3.13-0.05v0c-1.5 0-2.967 0.043-4.4 0.13-1.433 0.08-2.35 0.137-2.75 0.17zM237.95 26.6h2.7c1.1 0 2.067-0.05 2.9-0.15v0l-2.25-8.1h-0.6zM276.7 38.5c-1.933 0-3.45-1.2-4.55-3.6v0l-3.35-6.55h-2.8l-0.05 3.85c0 0.9 0.067 1.54 0.2 1.92 0.133 0.387 0.393 0.647 0.78 0.78 0.38 0.133 1.037 0.217 1.97 0.25v0l0.2 0.25-0.45 2.65c-0.533-0.033-1.473-0.057-2.82-0.07-1.353-0.02-2.53-0.03-3.53-0.03v0c-1.067 0-2.167 0.033-3.3 0.1-1.133 0.067-1.867 0.117-2.2 0.15v0l0.35-2.9c1.133-0.133 1.893-0.427 2.28-0.88 0.38-0.447 0.57-1.22 0.57-2.32v0l0.05-14.65c0-0.7-0.09-1.177-0.27-1.43-0.187-0.247-0.513-0.37-0.98-0.37v0l-1.45 0.05-0.3-0.35 0.4-2.55 5.3 0.05c1.167 0 2.417-0.027 3.75-0.08 1.333-0.047 2.267-0.087 2.8-0.12v0c3.3 0 5.817 0.583 7.55 1.75 1.733 1.167 2.6 2.867 2.6 5.1v0c0 1.533-0.467 2.933-1.4 4.2-0.933 1.267-2.283 2.333-4.05 3.2v0l3.35 5.15c0.8 1.167 1.55 2.017 2.25 2.55 0.7 0.533 1.45 0.8 2.25 0.8v0l0.35 0.45-0.35 2.25zM269.7 24.85c2.233-0.8 3.35-2.333 3.35-4.6v0c0-1.333-0.483-2.327-1.45-2.98-0.967-0.647-2.45-0.97-4.45-0.97v0c-0.267 0-0.44 0.057-0.52 0.17-0.087 0.12-0.147 0.363-0.18 0.73v0c-0.2 2.733-0.3 5.15-0.3 7.25v0z"
                                   fill="#61777f"
                                   fill-rule="nonzero"
                                   stroke="none"
                                   stroke-width="1"
                                   stroke-linecap="butt"
                                   stroke-linejoin="miter"
                                   stroke-miterlimit="10"
                                   stroke-dasharray=""
                                   stroke-dashoffset="0"
                                   font-family="none"
                                   font-weight="none"
                                   font-size="none"
                                   text-anchor="none"
                                   style="mix-blend-mode: normal"
                                   data-fill-palette-color="primary"
                                   opacity="1"
                                   id="path497" />
                              </g>
                            </svg>
                          </g>
                        </svg>
                      </g>
                    </svg>
                  </g>
                </svg>
              </g>
              <g
                 transform="matrix(1,0,0,1,0,0.40102215088280957)"
                 id="g527">
                <svg
                   viewBox="0 0 160.40952440860198 160.40886035313"
                   height="160.40886035313"
                   width="160.40952440860198"
                   version="1.1"
                   id="svg525">
                  <g
                     id="g523">
                    <svg
                       version="1.0"
                       x="0"
                       y="0"
                       viewBox="4.667734146118164 4.6859588623046875 90.3050308227539 90.30465698242188"
                       enable-background="new 0 0 100 100"
                       xml:space="preserve"
                       height="160.40886035313"
                       width="160.40952440860198"
                       class="icon-icon-0"
                       data-fill-palette-color="accent"
                       id="icon-0"><path
                         d="M17.504 35.743c-1.334 8.611 0.522 17.134 5.093 23.382 3.514 4.801 8.413 7.905 13.796 8.739 5.677 0.88 11.253-0.429 15.703-3.685 1.248-0.912 2.36-1.946 3.326-3.076-2.222 0.978-4.814 1.267-7.626 0.831-11.717-1.816-19.673-13.464-17.735-25.964 0.934-6.03 4.384-11.497 9.713-15.397 6.768-4.952 15.953-6.97 25.201-5.537 7.474 1.158 17.67 5.964 25.56 15.213 0 0-22.835-39.421-56.115-20.356C23.689 16.04 18.653 28.323 17.504 35.743z"
                         fill="#2a0303"
                         data-fill-palette-color="accent"
                         id="path514" /><path
                         d="M82.544 65.256c1.659-8.555 0.125-17.141-4.207-23.557-3.331-4.931-8.109-8.217-13.457-9.253-5.639-1.094-11.261 0.004-15.83 3.091-1.282 0.863-2.431 1.854-3.44 2.947 2.257-0.894 4.859-1.084 7.652-0.543 11.64 2.257 19.151 14.196 16.744 26.616-1.161 5.989-4.815 11.324-10.288 15.019-6.949 4.692-16.205 6.364-25.393 4.582C26.902 82.719 16.894 77.532 9.358 67.992c0 0 21.331 40.255 55.307 22.457C75.621 84.712 81.115 72.628 82.544 65.256z"
                         fill="#2a0303"
                         data-fill-palette-color="accent"
                         id="path516" /><path
                         d="M35.726 82.88c8.611 1.334 17.133-0.522 23.381-5.094 4.801-3.514 7.905-8.413 8.74-13.796 0.879-5.676-0.429-11.253-3.686-15.702-0.912-1.248-1.946-2.36-3.076-3.327 0.979 2.222 1.267 4.815 0.831 7.626-1.816 11.717-13.463 19.673-25.965 17.736-6.029-0.934-11.497-4.385-15.395-9.713-4.952-6.768-6.971-15.954-5.538-25.202 1.158-7.474 5.964-17.67 15.213-25.559 0 0-39.421 22.835-20.356 56.115C16.022 76.695 28.305 81.73 35.726 82.88z"
                         fill="#2a0303"
                         data-fill-palette-color="accent"
                         id="path518" /><path
                         d="M90.432 35.718c-5.738-10.955-17.822-16.45-25.194-17.879-8.554-1.659-17.141-0.125-23.557 4.208-4.931 3.331-8.217 8.108-9.254 13.456-1.094 5.64 0.004 11.261 3.092 15.83 0.863 1.282 1.854 2.431 2.946 3.441-0.894-2.257-1.084-4.859-0.542-7.652 2.257-11.64 14.196-19.151 26.615-16.744 5.99 1.161 11.324 4.816 15.019 10.289 4.693 6.949 6.363 16.204 4.583 25.392-1.44 7.423-6.626 17.431-16.167 24.966C67.973 91.025 108.228 69.694 90.432 35.718z"
                         fill="#2a0303"
                         data-fill-palette-color="accent"
                         id="path520" /></svg>
                  </g>
                </svg>
              </g>
            </svg>
          </g>
          <defs
             id="defs533" />
        </svg>
        <rect
           width="395.5199999999999"
           height="106.72182579476149"
           fill="none"
           stroke="none"
           visibility="hidden"
           id="rect537" />
      </g>
    </svg>
  </g>
</svg>
